<?xml version="1.0" standalone="no"?>
<!DOCTYPE svg PUBLIC "-//W3C//DTD SVG 20010904//EN"
 "http://www.w3.org/TR/2001/REC-SVG-20010904/DTD/svg10.dtd">
<svg version="1.0" xmlns="http://www.w3.org/2000/svg"
 width="500.000000pt" height="500.000000pt" viewBox="0 0 500.000000 500.000000"
 preserveAspectRatio="xMidYMid meet">
<metadata>
Created by potrace 1.14, written by Peter Selinger 2001-2017
</metadata>
<g transform="translate(0.000000,500.000000) scale(0.100000,-0.100000)"
fill="#000000" stroke="none">
<path d="M193 4985 c-51 -22 -119 -91 -144 -148 l-24 -52 -3 -1500 c-2 -1124
0 -1511 9 -1543 22 -81 104 -117 208 -92 101 24 166 109 210 275 32 119 30
118 100 47 270 -269 648 -381 1039 -307 328 62 613 263 798 561 l59 96 5
-1114 c5 -1057 6 -1115 23 -1142 43 -65 181 -75 260 -19 72 50 98 100 152 291
10 34 21 62 24 62 4 0 31 -25 61 -56 302 -310 764 -414 1198 -269 171 58 307
141 443 272 185 178 306 402 365 674 29 131 27 410 -4 548 -90 400 -321 702
-670 876 -159 78 -326 115 -528 115 -235 0 -446 -70 -646 -213 l-77 -56 -3
437 -3 437 -30 54 c-58 105 -177 169 -295 158 -53 -4 -151 -44 -165 -67 -15
-24 -32 -6 -54 58 -30 87 -101 228 -153 305 -66 97 -222 252 -323 319 -206
138 -412 200 -670 202 -233 1 -470 -78 -653 -216 -35 -27 -65 -48 -67 -48 -2
0 -5 190 -7 423 -3 370 -6 427 -21 465 -25 64 -72 119 -131 152 -47 28 -58 30
-151 30 -63 -1 -112 -6 -132 -15z m1263 -1396 c125 -33 207 -80 304 -178 141
-142 203 -292 203 -491 0 -277 -146 -514 -388 -630 -180 -86 -405 -79 -588 17
-48 25 -99 65 -153 118 -135 134 -204 301 -204 495 0 167 56 322 163 451 160
193 425 280 663 218z m2397 -1625 c111 -24 244 -94 319 -167 227 -222 281
-539 141 -827 -39 -80 -59 -108 -132 -180 -133 -131 -274 -191 -451 -192 -119
0 -190 16 -295 67 -357 175 -490 627 -288 975 57 98 171 207 270 258 146 75
293 98 436 66z"/>
<path d="M4738 394 c-60 -32 -76 -121 -33 -173 92 -109 256 -10 205 123 -21
56 -113 83 -172 50z"/>
</g>
</svg>
